<svg width="16" height="17" viewBox="0 0 16 17" fill="none" xmlns="http://www.w3.org/2000/svg">
<path fill-rule="evenodd" clip-rule="evenodd" d="M7.97025 0.500009C7.52927 0.497952 7.17011 0.853773 7.16806 1.29476L7.13784 7.77286L0.794758 7.80245C0.353773 7.80451 -0.00204804 8.16366 8.87307e-06 8.60465C0.00206582 9.04563 0.361222 9.40145 0.802207 9.39939L7.13039 9.36988L7.10087 15.6981C7.09881 16.1391 7.45463 16.4982 7.89562 16.5003C8.3366 16.5023 8.69576 16.1465 8.69782 15.7055L8.7274 9.36243L15.2055 9.33221C15.6465 9.33016 16.0023 8.971 16.0003 8.53001C15.9982 8.08903 15.6391 7.73321 15.1981 7.73527L8.73485 7.76541L8.765 1.30221C8.76706 0.861223 8.41124 0.502065 7.97025 0.500009Z" fill="#1B1B1F"/>
</svg>
