<svg width="139" height="126" viewBox="0 0 139 126" fill="none" xmlns="http://www.w3.org/2000/svg">
<path d="M12.2856 27.1027C16.2807 25.1811 20.9161 24.5865 25.2673 23.4684C30.3563 22.3098 35.4454 21.1512 40.5703 20.1325C62.8948 15.589 85.5789 12.4447 108.306 10.6317C114.032 10.2044 117.115 14.6324 117.315 18.9063C120.496 21.967 120.311 26.489 117.942 30.0808C106.976 47.9633 95.8333 65.7421 84.338 83.3131C78.5561 92.2565 72.598 101.096 66.7442 109.76C63.8173 114.092 60.1526 118.464 54.4199 117.7C48.5468 116.972 45.8129 112.155 43.0106 107.655C31.9055 89.4782 20.8363 71.4412 9.73121 53.2643C7.10515 48.8679 3.95363 44.7557 3.78219 39.4302C3.53884 33.8249 7.34385 29.4166 12.2856 27.1027ZM25.1179 46.1781C29.021 52.6328 33.0645 59.0514 36.9676 65.5061C40.8708 71.9608 44.9143 78.3794 48.8174 84.834C50.8751 88.1833 52.9328 91.5325 54.9905 94.8817C55.2387 95.2654 55.5229 95.7889 55.8071 96.3125C56.6783 95.0445 57.4451 93.9526 58.3163 92.6846C60.4764 89.4448 62.5321 86.3809 64.6921 83.1411C69.3255 76.1335 73.9229 68.986 78.5563 61.9783C85.6955 50.7471 92.8347 39.5159 99.7975 28.1808C74.9652 30.5349 50.2476 34.5001 25.893 40.4603C24.6297 40.7849 23.5069 41.0734 22.2436 41.398C23.0961 42.9688 24.089 44.5035 25.1179 46.1781Z" fill="#CAA0F0"/>
</svg>
