<svg width="288" height="376" viewBox="0 0 288 376" fill="none" xmlns="http://www.w3.org/2000/svg">
<path d="M166.489 282.499L166.488 282.498C160.376 268.506 157.137 253.634 156.547 238.624C150.884 238.758 145.416 239.009 140.085 239.722L140.075 239.723C115.811 242.805 93.1395 254 80.7207 275.342C78.9356 278.495 75.6141 280.026 72.3222 280.347C69.0393 280.666 65.5071 279.819 63.0145 277.877C57.0433 273.282 57.1604 265.988 60.5482 260.427C81.1869 225.287 120.162 213.913 158.336 213.924C158.518 212.726 158.746 211.484 158.994 210.317C160.014 204.862 161.22 199.474 162.415 194.14C162.499 193.764 162.583 193.389 162.667 193.014C163.947 187.297 165.197 181.637 166.19 175.959C168.176 164.609 169.122 153.254 167.216 141.441C159.497 93.7673 115.334 59.3458 67.1558 63.3941L67.1512 63.3944C59.1024 64.046 54.3173 58.0344 53.5377 51.9574C53.1465 48.9089 53.7262 45.7036 55.4797 43.1425C57.2602 40.5422 60.1704 38.729 64.1553 38.3994L64.1587 38.3992C106.834 34.97 150.431 54.593 173.882 90.9579C185.686 109.219 192.879 130.504 193.579 152.301L193.58 152.309C193.881 163.612 192.213 174.416 190.039 185.043C189.243 188.936 188.384 192.784 187.527 196.623C186.145 202.819 184.767 208.993 183.666 215.293C186.871 215.654 190.036 216.145 193.089 216.619C193.916 216.747 194.734 216.874 195.542 216.997L195.556 216.999L195.57 217.001C219.455 221.088 243.783 229.209 260.538 248.196L260.54 248.199C275.475 265.202 279.334 292.236 268.319 312.238L268.315 312.245L268.311 312.251C256.617 333.001 232.446 339.372 211.409 330.773C190.165 322.152 175.334 302.69 166.489 282.499ZM210.163 246.224L210.161 246.224C201.087 243.313 191.432 241.205 181.722 240.011C182.545 254.009 186.512 267.699 193.289 280.265C200.648 293.831 213.034 307.894 228.578 309.509L228.58 309.509C236.465 310.337 241.905 306.698 245.193 301.074C248.531 295.366 249.625 287.608 248.503 280.538C245.506 261.945 227.283 251.699 210.163 246.224Z" fill="#63C0B7" stroke="#63C0B7" stroke-width="3"/>
</svg>
