<svg width="334" height="402" viewBox="0 0 334 402" fill="none" xmlns="http://www.w3.org/2000/svg">
<path d="M77.4487 311.086C61.6544 285.985 65.1292 252.411 80.417 227.949C97.4532 200.817 128.803 184.194 159.545 177.667C196.226 170.118 235.457 177.508 270.366 161.742C301.476 147.688 326.235 120.407 324.804 84.6587C323.808 56.6965 280.696 60.4012 281.51 88.0109C282.515 116.858 243.198 127.083 220.315 129.388C181.021 133.152 143.104 132.655 106.617 150.558C73.225 167.109 44.4662 193.979 31.6922 229.839C19.2715 265.52 21.6171 303.916 41.9226 336.062C56.9922 359.753 92.251 334.69 77.4487 311.086Z" fill="#FFF1A9"/>
</svg>
