<svg width="49" height="48" viewBox="0 0 49 48" fill="none" xmlns="http://www.w3.org/2000/svg">
<g clip-path="url(#clip0)">
<path d="M42.5 0H6.5C3.191 0 0.5 2.691 0.5 6V42C0.5 45.309 3.191 48 6.5 48H24.5V31.5H18.5V24H24.5V18C24.5 13.029 28.529 9 33.5 9H39.5V16.5H36.5C34.844 16.5 33.5 16.344 33.5 18V24H41L38 31.5H33.5V48H42.5C45.809 48 48.5 45.309 48.5 42V6C48.5 2.691 45.809 0 42.5 0Z" fill="white"/>
</g>
<defs>
<clipPath id="clip0">
<rect width="48" height="48" fill="white" transform="translate(0.5)"/>
</clipPath>
</defs>
</svg>
