<svg width="49" height="48" viewBox="0 0 49 48" fill="none" xmlns="http://www.w3.org/2000/svg">
<g clip-path="url(#clip0)">
<path d="M33.5 0H15.5C7.217 0 0.5 6.717 0.5 15V33C0.5 41.283 7.217 48 15.5 48H33.5C41.783 48 48.5 41.283 48.5 33V15C48.5 6.717 41.783 0 33.5 0ZM44 33C44 38.79 39.29 43.5 33.5 43.5H15.5C9.71 43.5 5 38.79 5 33V15C5 9.21 9.71 4.5 15.5 4.5H33.5C39.29 4.5 44 9.21 44 15V33Z" fill="white"/>
<path d="M24.5 12C17.873 12 12.5 17.373 12.5 24C12.5 30.627 17.873 36 24.5 36C31.127 36 36.5 30.627 36.5 24C36.5 17.373 31.127 12 24.5 12ZM24.5 31.5C20.366 31.5 17 28.134 17 24C17 19.863 20.366 16.5 24.5 16.5C28.634 16.5 32 19.863 32 24C32 28.134 28.634 31.5 24.5 31.5Z" fill="white"/>
<path d="M37.4 12.699C38.2831 12.699 38.999 11.9831 38.999 11.1C38.999 10.2169 38.2831 9.50098 37.4 9.50098C36.5169 9.50098 35.801 10.2169 35.801 11.1C35.801 11.9831 36.5169 12.699 37.4 12.699Z" fill="white"/>
</g>
<defs>
<clipPath id="clip0">
<rect width="48" height="48" fill="white" transform="translate(0.5)"/>
</clipPath>
</defs>
</svg>
