<svg width="49" height="48" viewBox="0 0 49 48" fill="none" xmlns="http://www.w3.org/2000/svg">
<g clip-path="url(#clip0)">
<path d="M48.0721 34.7342C47.9431 34.5182 47.1451 32.7841 43.3048 29.2198C39.2845 25.4875 39.8245 26.0936 44.6669 19.6401C47.6161 15.7098 48.7952 13.3096 48.4262 12.2836C48.0751 11.3055 45.906 11.5635 45.906 11.5635L38.6935 11.6055C38.6935 11.6055 38.1594 11.5335 37.7604 11.7705C37.3734 12.0045 37.1243 12.5446 37.1243 12.5446C37.1243 12.5446 35.9813 15.5868 34.4572 18.173C31.2439 23.6304 29.9568 23.9184 29.4318 23.5794C28.2107 22.7903 28.5167 20.4052 28.5167 18.713C28.5167 13.4236 29.3178 11.2185 26.9536 10.6484C26.1675 10.4594 25.5915 10.3334 23.5844 10.3124C21.0102 10.2854 18.829 10.3214 17.5959 10.9245C16.7739 11.3265 16.1408 12.2235 16.5278 12.2746C17.0049 12.3376 18.085 12.5656 18.658 13.3456C19.399 14.3507 19.372 16.6129 19.372 16.6129C19.372 16.6129 19.7981 22.8383 18.379 23.6124C17.4039 24.1434 16.0688 23.0604 13.2036 18.107C11.7365 15.5718 10.6264 12.7666 10.6264 12.7666C10.6264 12.7666 10.4134 12.2446 10.0324 11.9655C9.57033 11.6265 8.92229 11.5185 8.92229 11.5185L2.06378 11.5605C2.06378 11.5605 1.03471 11.5905 0.656681 12.0375C0.320657 12.4366 0.629679 13.2586 0.629679 13.2586C0.629679 13.2586 6.00007 25.8206 12.0785 32.154C17.6559 37.9595 23.9864 37.5784 23.9864 37.5784H26.8546C26.8546 37.5784 27.7217 37.4824 28.1627 37.0054C28.5707 36.5674 28.5557 35.7453 28.5557 35.7453C28.5557 35.7453 28.4987 31.896 30.2868 31.329C32.048 30.7709 34.3101 35.0492 36.7073 36.6964C38.5194 37.9415 39.8965 37.6684 39.8965 37.6684L46.308 37.5784C46.308 37.5784 49.6623 37.3714 48.0721 34.7342Z" fill="white"/>
</g>
<defs>
<clipPath id="clip0">
<rect width="48" height="48" fill="white" transform="translate(0.5)"/>
</clipPath>
</defs>
</svg>
