<svg width="181" height="164" viewBox="0 0 181 164" fill="none" xmlns="http://www.w3.org/2000/svg">
<path d="M14.9071 34.7613C20.1317 32.2484 26.1936 31.4708 31.8838 30.0086C38.5389 28.4935 45.194 26.9783 51.8961 25.6462C81.0908 19.7044 110.756 15.5924 140.476 13.2215C147.964 12.6627 151.996 18.4534 152.258 24.0426C156.418 28.0452 156.176 33.9588 153.078 38.6559C138.737 62.0416 124.166 85.2915 109.133 108.27C101.572 119.965 93.7799 131.525 86.1247 142.855C82.2971 148.52 77.5047 154.238 70.0078 153.238C62.3274 152.286 58.7521 145.988 55.0873 140.103C40.5648 116.332 26.0892 92.7445 11.5666 68.9738C8.13243 63.2244 4.01107 57.8468 3.78687 50.8825C3.46863 43.5522 8.44459 37.7873 14.9071 34.7613ZM31.6884 59.707C36.7926 68.148 42.0805 76.5419 47.1848 84.9829C52.289 93.4239 57.5769 101.818 62.6812 110.259C65.3721 114.639 68.063 119.019 70.754 123.399C71.0786 123.9 71.4502 124.585 71.8218 125.27C72.9612 123.611 73.9639 122.183 75.1033 120.525C77.9281 116.288 80.6164 112.282 83.4412 108.045C89.5004 98.8808 95.5127 89.5337 101.572 80.3695C110.908 65.682 120.244 50.9945 129.35 36.1712C96.8756 39.2497 64.5515 44.4352 32.702 52.2295C31.05 52.654 29.5816 53.0314 27.9296 53.4559C29.0445 55.51 30.3429 57.517 31.6884 59.707Z" fill="#FF6A9B"/>
</svg>
