<svg width="629" height="735" viewBox="0 0 629 735" fill="none" xmlns="http://www.w3.org/2000/svg">
<path d="M393.463 533.801L393.462 533.799C376.668 509.96 364.986 483.327 358.284 455.414C347.363 457.901 336.834 460.524 326.758 464.029L326.748 464.033C282.677 479.04 244.493 508.634 229.398 553.421C227.46 559.414 222.308 563.27 216.604 565.027C210.91 566.782 204.4 566.538 199.398 564.058C187.372 558.191 184.861 545.451 188.878 534.293C213.709 461.586 281.663 425.9 352.641 411.63C352.481 409.026 352.412 406.226 352.431 403.607C352.251 393.127 352.444 382.7 352.635 372.349C352.648 371.622 352.662 370.896 352.675 370.169C352.878 359.087 353.049 348.093 352.735 337.155C352.108 315.286 349.543 293.714 341.455 272.345C308.812 186.245 213.178 138.843 124.738 164.822L124.733 164.823C110.918 168.835 100.38 160.114 96.7985 149.639C95.0043 144.392 94.8908 138.575 97.0214 133.514C99.1705 128.41 103.549 124.212 110.446 122.196L110.449 122.195C187.819 99.7749 275.556 119.514 332.452 177.646C361.106 206.861 382.385 243.376 391.891 283.258L391.893 283.266C396.705 303.958 397.712 324.498 397.714 344.986C397.715 352.451 397.584 359.888 397.452 367.322C397.231 379.83 397.01 392.329 397.42 404.941C403.937 404.31 410.441 403.998 416.736 403.696C418.319 403.62 419.89 403.545 421.444 403.466L421.458 403.465L421.472 403.464C467.194 401.983 514.992 407.81 552.887 436.374L552.89 436.376C586.608 461.912 603.786 509.988 591.134 550.67L591.132 550.677L591.13 550.684C577.557 592.862 535.879 613.551 494.195 605.7C452.019 597.866 417.41 567.717 393.463 533.801ZM459.709 449.431L459.708 449.43C441.181 447.412 421.839 447.209 402.79 448.831C409.581 475.249 422.376 499.839 440.174 521.122C459.026 543.555 487.718 565.388 517.842 562.416L517.844 562.416C533.364 560.9 542.469 551.678 546.577 539.576C550.716 527.381 549.756 512.261 544.905 499.35C531.999 465.232 493.561 453.088 459.709 449.431Z" fill="#63C0B7" stroke="#63C0B7" stroke-width="3"/>
</svg>
