<svg width="32" height="32" viewBox="0 0 32 32" fill="none" xmlns="http://www.w3.org/2000/svg">
<circle cx="16" cy="16" r="16" fill="#404147"/>
<path fill-rule="evenodd" clip-rule="evenodd" d="M24.052 12.7041C24.0145 11.8539 23.877 11.2694 23.6801 10.763C23.4769 10.2254 23.1644 9.74412 22.7549 9.34402C22.3547 8.93769 21.8703 8.62195 21.3389 8.42196C20.8295 8.22502 20.2481 8.08754 19.398 8.05006C18.5415 8.0094 18.2696 8 16.0973 8C13.925 8 13.6531 8.0094 12.7998 8.04688C11.9496 8.08437 11.3651 8.22197 10.8588 8.41878C10.3211 8.62195 9.83982 8.93451 9.43972 9.34402C9.03339 9.74412 8.71777 10.2286 8.51766 10.7599C8.32072 11.2694 8.18324 11.8507 8.14576 12.7009C8.1051 13.5574 8.0957 13.8293 8.0957 16.0016C8.0957 18.1739 8.1051 18.4458 8.14259 19.2991C8.18007 20.1493 8.31767 20.7337 8.51461 21.2402C8.71777 21.7778 9.03339 22.2591 9.43972 22.6592C9.83982 23.0655 10.3243 23.3812 10.8556 23.5812C11.3651 23.7782 11.9464 23.9156 12.7967 23.9531C13.6499 23.9907 13.9219 24 16.0942 24C18.2665 24 18.5384 23.9907 19.3918 23.9531C20.2419 23.9156 20.8264 23.7782 21.3327 23.5812C22.408 23.1655 23.2581 22.3153 23.6739 21.2402C23.8707 20.7307 24.0083 20.1493 24.0458 19.2991C24.0832 18.4458 24.0926 18.1739 24.0926 16.0016C24.0926 13.8293 24.0895 13.5574 24.052 12.7041ZM22.6111 19.2366C22.5767 20.018 22.4455 20.44 22.3361 20.7213C22.0672 21.4183 21.514 21.9715 20.817 22.2404C20.5357 22.3498 20.1107 22.481 19.3323 22.5153C18.4884 22.5529 18.2353 22.5622 16.1005 22.5622C13.9656 22.5622 13.7094 22.5529 12.8685 22.5153C12.0871 22.481 11.6651 22.3498 11.3838 22.2404C11.037 22.1122 10.7212 21.909 10.4649 21.6433C10.1993 21.3839 9.9961 21.0713 9.8679 20.7244C9.75851 20.4431 9.62726 20.018 9.59295 19.2398C9.55534 18.3959 9.54606 18.1426 9.54606 16.0078C9.54606 13.873 9.55534 13.6167 9.59295 12.776C9.62726 11.9946 9.75851 11.5726 9.8679 11.2913C9.9961 10.9443 10.1993 10.6287 10.4681 10.3723C10.7274 10.1066 11.04 9.90345 11.387 9.77538C11.6683 9.66598 12.0934 9.53473 12.8717 9.5003C13.7156 9.46281 13.9688 9.45341 16.1035 9.45341C18.2415 9.45341 18.4946 9.46281 19.3355 9.5003C20.1169 9.53473 20.5388 9.66598 20.8201 9.77538C21.167 9.90345 21.4828 10.1066 21.739 10.3723C22.0047 10.6317 22.2079 10.9443 22.3361 11.2913C22.4455 11.5726 22.5767 11.9976 22.6111 12.776C22.6486 13.6199 22.658 13.873 22.658 16.0078C22.658 18.1426 22.6486 18.3927 22.6111 19.2366ZM16.0973 11.8915C13.8281 11.8915 11.9871 13.7324 11.9871 16.0017C11.9871 18.2709 13.8281 20.1119 16.0973 20.1119C18.3665 20.1119 20.2075 18.2709 20.2075 16.0017C20.2075 13.7324 18.3665 11.8915 16.0973 11.8915ZM16.0973 18.6679C14.6252 18.6679 13.4311 17.4739 13.4311 16.0017C13.4311 14.5295 14.6252 13.3355 16.0973 13.3355C17.5695 13.3355 18.7635 14.5295 18.7635 16.0017C18.7635 17.4739 17.5695 18.6679 16.0973 18.6679ZM20.37 12.6887C20.9 12.6887 21.3296 12.259 21.3296 11.7292C21.3296 11.1991 20.9 10.7696 20.37 10.7696C19.8401 10.7696 19.4104 11.1991 19.4104 11.7292C19.4104 12.259 19.8401 12.6887 20.37 12.6887Z" fill="white"/>
</svg>
