<svg width="596" height="827" viewBox="0 0 596 827" fill="none" xmlns="http://www.w3.org/2000/svg">
<path d="M563.256 700.962C576.683 637.427 560.072 571.71 517.259 522.896C480.334 480.943 426.397 459.414 374.091 443.979C323.384 429.33 269.392 420.675 221.819 396.979C178.906 375.241 145.204 338.841 127.657 293.835C108.089 244.198 105.344 186.615 127.627 137.354C134.704 121.644 131.663 102.287 115.267 93.2412C101.002 85.243 78.4425 89.3798 71.1024 105.623C24.6997 207.873 48.8609 334.857 131.174 412.334C172.33 451.072 225.862 471.41 279.361 486.438C330.331 500.555 384.322 509.21 430.719 535.967C483.115 566.001 513.63 624.322 500.449 684.67C491.665 725.344 554.472 741.636 563.256 700.962Z" fill="#BE95E3"/>
</svg>
