<svg width="239" height="258" viewBox="0 0 239 258" fill="none" xmlns="http://www.w3.org/2000/svg">
<path d="M145.443 1.0336C100.637 12.5178 101.243 37.7024 130.71 68.5283C134.141 72.1549 194.892 121.92 185.406 124.74C171.681 128.77 129.095 88.676 119.205 79.0051C95.3895 55.4323 79.2431 19.9724 35.4461 25.8152C-5.72722 31.2551 -6.53457 62.081 17.685 87.4671C43.3174 114.264 61.4821 112.853 97.8115 113.055C110.527 113.055 179.149 117.286 145.645 133.807C129.701 141.664 79.6468 129.374 62.4913 130.382C38.2717 131.59 -18.4425 149.119 5.9789 184.579C24.9509 211.98 62.4912 204.324 83.2797 191.026C107.096 175.714 131.113 150.529 160.379 143.881C213.258 131.993 158.36 157.984 143.829 168.864C122.637 184.78 80.4541 229.71 117.994 251.268C157.553 274.035 178.947 233.739 183.791 209.361C189.442 181.355 193.882 160.2 212.653 140.254C216.286 136.224 248.78 152.141 236.065 125.345C231.221 115.271 213.056 126.957 210.634 123.934C201.35 111.443 202.965 122.121 200.341 108.824C196.708 91.0937 210.433 74.3711 202.359 52.0072C195.497 32.061 175.92 -6.82399 145.443 1.0336Z" fill="#63C0B7"/>
</svg>
