<svg width="49" height="28" viewBox="0 0 49 28" fill="none" xmlns="http://www.w3.org/2000/svg">
<path d="M48.0721 24.7342C47.9431 24.5182 47.1451 22.7841 43.3048 19.2198C39.2845 15.4875 39.8245 16.0936 44.6669 9.6401C47.6161 5.70981 48.7952 3.30963 48.4262 2.28355C48.0751 1.30548 45.906 1.5635 45.906 1.5635L38.6935 1.6055C38.6935 1.6055 38.1594 1.5335 37.7604 1.77052C37.3734 2.00453 37.1243 2.54457 37.1243 2.54457C37.1243 2.54457 35.9813 5.5868 34.4572 8.17299C31.2439 13.6304 29.9568 13.9184 29.4318 13.5794C28.2107 12.7903 28.5167 10.4052 28.5167 8.71303C28.5167 3.42364 29.3178 1.21847 26.9536 0.648432C26.1675 0.459418 25.5915 0.333409 23.5844 0.312407C21.0102 0.285405 18.829 0.321408 17.5959 0.924452C16.7739 1.32648 16.1408 2.22355 16.5278 2.27455C17.0049 2.33756 18.085 2.56557 18.658 3.34563C19.399 4.35071 19.372 6.61287 19.372 6.61287C19.372 6.61287 19.7981 12.8383 18.379 13.6124C17.4039 14.1434 16.0688 13.0604 13.2036 8.10699C11.7365 5.5718 10.6264 2.76659 10.6264 2.76659C10.6264 2.76659 10.4134 2.24455 10.0324 1.96553C9.57033 1.6265 8.92229 1.5185 8.92229 1.5185L2.06378 1.5605C2.06378 1.5605 1.03471 1.5905 0.656681 2.03754C0.320657 2.43657 0.629679 3.25863 0.629679 3.25863C0.629679 3.25863 6.00007 15.8206 12.0785 22.154C17.6559 27.9595 23.9864 27.5784 23.9864 27.5784H26.8546C26.8546 27.5784 27.7217 27.4824 28.1627 27.0054C28.5707 26.5674 28.5557 25.7453 28.5557 25.7453C28.5557 25.7453 28.4987 21.896 30.2868 21.329C32.048 20.7709 34.3101 25.0492 36.7073 26.6964C38.5194 27.9415 39.8965 27.6684 39.8965 27.6684L46.308 27.5784C46.308 27.5784 49.6623 27.3714 48.0721 24.7342Z" fill="white"/>
</svg>
