<svg width="49" height="34" viewBox="0 0 49 34" fill="none" xmlns="http://www.w3.org/2000/svg">
<path d="M46.46 3.68C45.158 1.364 43.745 0.938 40.868 0.776C37.994 0.581 30.767 0.5 24.506 0.5C18.233 0.5 11.003 0.581 8.132 0.773C5.261 0.938 3.845 1.361 2.531 3.68C1.19 5.993 0.5 9.977 0.5 16.991C0.5 16.997 0.5 17 0.5 17C0.5 17.006 0.5 17.009 0.5 17.009V17.015C0.5 23.999 1.19 28.013 2.531 30.302C3.845 32.618 5.258 33.038 8.129 33.233C11.003 33.401 18.233 33.5 24.506 33.5C30.767 33.5 37.994 33.401 40.871 33.236C43.748 33.041 45.161 32.621 46.463 30.305C47.816 28.016 48.5 24.002 48.5 17.018C48.5 17.018 48.5 17.009 48.5 17.003C48.5 17.003 48.5 16.997 48.5 16.994C48.5 9.977 47.816 5.993 46.46 3.68ZM18.5 26V8L33.5 17L18.5 26Z" fill="white"/>
</svg>
