<svg width="40" height="20" viewBox="0 0 40 20" fill="none" xmlns="http://www.w3.org/2000/svg">
<path d="M30.2764 12.2567C29.8204 12.2567 28.4851 12.2733 27.5895 12.2567C19.9686 12.1404 12.3476 12.0241 4.72669 11.9078C3.89621 11.8912 3.06572 11.9078 2.23523 11.8414C1.09535 11.7417 -0.239941 11.5257 0.0368878 10.0306C0.150876 9.43254 1.38846 8.68498 2.1701 8.63514C8.53716 8.26966 14.9042 8.03709 21.2713 7.7879C22.7206 7.73806 24.1698 7.7879 25.782 6.97389C24.0396 5.96052 22.1995 5.08006 20.5874 3.88396C19.822 3.31913 18.9264 1.99013 19.0892 1.25918C19.48 -0.368846 21.1247 -0.119657 22.2158 0.362106C27.4104 2.68786 32.6538 4.93055 37.6205 7.67161C40.8121 9.43254 40.7796 12.0739 37.6042 13.8182C33.354 16.1606 28.8271 17.9548 24.3815 19.8652C23.7627 20.1808 22.7531 19.915 22.2646 19.3502C21.8901 18.8518 22.5252 17.6225 23.03 17.2238C24.1047 16.36 25.4074 15.7951 26.6287 15.1306C27.8989 14.4329 29.853 13.6521 30.4555 13.0375C30.944 12.5557 30.9603 12.2567 30.2764 12.2567Z" fill="#1B1B1F"/>
</svg>
