<svg width="40" height="32" viewBox="0 0 40 32" fill="none" xmlns="http://www.w3.org/2000/svg">
<path d="M30.2764 24.2567C29.8204 24.2567 28.4851 24.2733 27.5895 24.2567C19.9686 24.1404 12.3476 24.0241 4.72669 23.9078C3.89621 23.8912 3.06572 23.9078 2.23523 23.8414C1.09535 23.7417 -0.239941 23.5257 0.0368878 22.0306C0.150876 21.4325 1.38846 20.685 2.1701 20.6351C8.53716 20.2697 14.9042 20.0371 21.2713 19.7879C22.7206 19.7381 24.1698 19.7879 25.782 18.9739C24.0396 17.9605 22.1995 17.0801 20.5874 15.884C19.822 15.3191 18.9264 13.9901 19.0892 13.2592C19.48 11.6312 21.1247 11.8803 22.2158 12.3621C27.4104 14.6879 32.6538 16.9305 37.6205 19.6716C40.8121 21.4325 40.7796 24.0739 37.6042 25.8182C33.354 28.1606 28.8271 29.9548 24.3815 31.8652C23.7627 32.1808 22.7531 31.915 22.2646 31.3502C21.8901 30.8518 22.5252 29.6225 23.03 29.2238C24.1047 28.36 25.4074 27.7951 26.6287 27.1306C27.8989 26.4329 29.853 25.6521 30.4555 25.0375C30.944 24.5557 30.9603 24.2567 30.2764 24.2567Z" fill="#84858A"/>
</svg>
