<svg width="40" height="32" viewBox="0 0 40 32" fill="none" xmlns="http://www.w3.org/2000/svg">
<path d="M9.72364 24.2567C10.1796 24.2567 11.5149 24.2733 12.4105 24.2567C20.0314 24.1404 27.6524 24.0241 35.2733 23.9078C36.1038 23.8912 36.9343 23.9078 37.7648 23.8414C38.9046 23.7417 40.2399 23.5257 39.9631 22.0306C39.8491 21.4325 38.6115 20.685 37.8299 20.6351C31.4628 20.2697 25.0958 20.0371 18.7287 19.7879C17.2794 19.7381 15.8302 19.7879 14.218 18.9739C15.9604 17.9605 17.8005 17.0801 19.4126 15.884C20.178 15.3191 21.0736 13.9901 20.9108 13.2592C20.52 11.6312 18.8753 11.8803 17.7842 12.3621C12.5896 14.6879 7.34617 16.9305 2.37954 19.6716C-0.812134 21.4325 -0.779564 24.0739 2.39582 25.8182C6.64596 28.1606 11.1729 29.9548 15.6185 31.8652C16.2373 32.1808 17.2469 31.915 17.7354 31.3502C18.1099 30.8518 17.4748 29.6225 16.97 29.2238C15.8953 28.36 14.5926 27.7951 13.3713 27.1306C12.1011 26.4329 10.147 25.6521 9.54452 25.0375C9.056 24.5557 9.03971 24.2567 9.72364 24.2567Z" fill="#84858A"/>
</svg>
