<svg width="32" height="32" viewBox="0 0 32 32" fill="none" xmlns="http://www.w3.org/2000/svg">
<path fill-rule="evenodd" clip-rule="evenodd" d="M2 5.33333C2 4.59695 2.60658 4 3.35484 4H28.6452C29.3934 4 30 4.59695 30 5.33333C30 6.06971 29.3934 6.66667 28.6452 6.66667H3.35484C2.60658 6.66667 2 6.06971 2 5.33333ZM2 16C2 15.2636 2.60658 14.6667 3.35484 14.6667H28.6452C29.3934 14.6667 30 15.2636 30 16C30 16.7364 29.3934 17.3333 28.6452 17.3333H3.35484C2.60658 17.3333 2 16.7364 2 16ZM2 26.6667C2 25.9303 2.60658 25.3333 3.35484 25.3333H28.6452C29.3934 25.3333 30 25.9303 30 26.6667C30 27.403 29.3934 28 28.6452 28H3.35484C2.60658 28 2 27.403 2 26.6667Z" fill="#1B1B1F"/>
</svg>
