<svg width="24" height="24" viewBox="0 0 24 24" fill="none" xmlns="http://www.w3.org/2000/svg">
<path fill-rule="evenodd" clip-rule="evenodd" d="M23.6637 0.343973C24.115 0.799596 24.1116 1.53488 23.656 1.98627L13.5484 12L23.656 22.0137C24.1116 22.4651 24.1151 23.2004 23.6637 23.656C23.2123 24.1116 22.477 24.1151 22.0214 23.6637L11.8984 13.6347L1.97861 23.4624C1.52298 23.9137 0.787704 23.9103 0.336313 23.4547C-0.115079 22.9991 -0.111649 22.2638 0.343973 21.8124L10.2484 12L0.344014 2.18759C-0.111608 1.7362 -0.115038 1.00092 0.336354 0.545299C0.787746 0.0896765 1.52303 0.0862467 1.97865 0.537639L11.8984 10.3653L22.0214 0.336313C22.477 -0.115079 23.2123 -0.111649 23.6637 0.343973Z" fill="#1B1B1F"/>
</svg>
