<svg width="13" height="18" viewBox="0 0 13 18" fill="none" xmlns="http://www.w3.org/2000/svg">
<path d="M6.5 0.195652C3.02203 0.195652 0.19403 3.06724 0.19403 6.59881C0.19403 9.1667 1.72552 11.9041 3.2241 14.0344C4.72267 16.1648 6.22216 17.6873 6.22216 17.6873C6.29607 17.7622 6.39626 17.8043 6.50073 17.8043C6.60519 17.8043 6.70539 17.7622 6.7793 17.6873C6.7793 17.6873 8.27878 16.1648 9.77736 14.0344C11.2759 11.9041 12.806 9.1667 12.806 6.59881C12.806 3.06724 9.97797 0.195652 6.5 0.195652ZM6.5 0.996231C9.55198 0.996231 12.0175 3.49979 12.0175 6.59881C12.0175 8.83321 10.5932 11.4975 9.13585 13.5692C7.81775 15.4429 6.73967 16.5335 6.5 16.7818C6.2599 16.533 5.1834 15.4425 3.8656 13.5692C2.4083 11.4975 0.982458 8.83321 0.982458 6.59881C0.982458 3.49979 3.44802 0.996231 6.5 0.996231Z" fill="white"/>
<path d="M6.5 3.79678C4.98101 3.79678 3.74196 5.05641 3.74196 6.59881C3.74196 8.1412 4.98101 9.40083 6.5 9.40083C8.01899 9.40083 9.2595 8.1412 9.2595 6.59881C9.2595 5.05641 8.01899 3.79678 6.5 3.79678ZM6.5 4.59736C7.59299 4.59736 8.47107 5.48897 8.47107 6.59881C8.47107 7.70864 7.59299 8.60025 6.5 8.60025C5.40701 8.60025 4.53038 7.70864 4.53039 6.59881C4.53039 5.48897 5.40701 4.59736 6.5 4.59736Z" fill="white"/>
<path fill-rule="evenodd" clip-rule="evenodd" d="M6.08449 17.8251L6.07971 17.8203L6.06641 17.8066C6.05476 17.7946 6.03762 17.7769 6.01534 17.7537C5.97079 17.7073 5.90571 17.6388 5.82304 17.5501C5.65769 17.3726 5.4219 17.114 5.13917 16.7887C4.57388 16.1382 3.81995 15.2197 3.06584 14.1476C1.56552 12.0148 -1.5902e-07 9.2332 0 6.59881C2.31302e-07 2.96047 2.9136 0 6.5 0C10.0864 0 13 2.96047 13 6.59881C13 9.23316 11.436 12.0147 9.93562 14.1476C9.18151 15.2197 8.42758 16.1382 7.86229 16.7887C7.60918 17.0799 7.39369 17.3177 7.23269 17.4916H7.24576L6.92175 17.8203L6.91735 17.8247C6.80717 17.9365 6.65706 18 6.50073 18C6.3444 18 6.19467 17.9369 6.08449 17.8251ZM6.7793 17.6873C6.7793 17.6873 6.84637 17.6192 6.96632 17.4916C7.41353 17.0161 8.59573 15.7142 9.77736 14.0344C11.2759 11.9041 12.806 9.1667 12.806 6.59881C12.806 3.06724 9.97797 0.195652 6.5 0.195652C3.02203 0.195652 0.19403 3.06724 0.19403 6.59881C0.19403 9.1667 1.72552 11.9041 3.2241 14.0344C4.72267 16.1648 6.22216 17.6873 6.22216 17.6873C6.29607 17.7622 6.39626 17.8043 6.50073 17.8043C6.60519 17.8043 6.70539 17.7622 6.7793 17.6873ZM11.8235 6.59881C11.8235 3.60656 9.44354 1.19188 6.5 1.19188C3.55646 1.19188 1.17649 3.60656 1.17649 6.59881C1.17649 7.67716 1.52146 8.87292 2.05442 10.0646C2.58644 11.2541 3.30006 12.427 4.02386 13.456C5.15747 15.0675 6.11055 16.0949 6.50004 16.5013C6.88969 16.095 7.84388 15.0676 8.97759 13.456C9.70138 12.4271 10.4146 11.2542 10.9463 10.0646C11.4789 8.87298 11.8235 7.67719 11.8235 6.59881ZM6.63542 16.6416C7.02528 16.2353 7.98985 15.1983 9.13585 13.5692C10.5932 11.4975 12.0175 8.83321 12.0175 6.59881C12.0175 3.49979 9.55198 0.996231 6.5 0.996231C3.44802 0.996231 0.982458 3.49979 0.982458 6.59881C0.982458 8.83321 2.4083 11.4975 3.8656 13.5692C5.01146 15.1981 5.97487 16.2351 6.36462 16.6416C6.40534 16.684 6.43979 16.7196 6.46754 16.7483L6.5 16.7818L6.53421 16.7465C6.56165 16.7181 6.59553 16.6832 6.63542 16.6416ZM3.54793 6.59881C3.54793 4.94977 4.87245 3.60113 6.5 3.60113C8.12742 3.60113 9.45353 4.94964 9.45353 6.59881C9.45353 8.24797 8.12742 9.59648 6.5 9.59648C4.87245 9.59648 3.54793 8.24784 3.54793 6.59881ZM8.27704 6.59881C8.27704 5.59574 7.48456 4.79301 6.5 4.79301C5.51563 4.79301 4.72441 5.59555 4.72441 6.59881C4.72441 7.60206 5.51563 8.4046 6.5 8.4046C7.48456 8.4046 8.27704 7.60187 8.27704 6.59881ZM3.74196 6.59881C3.74196 5.05641 4.98101 3.79678 6.5 3.79678C8.01899 3.79678 9.2595 5.05641 9.2595 6.59881C9.2595 8.1412 8.01899 9.40083 6.5 9.40083C4.98101 9.40083 3.74196 8.1412 3.74196 6.59881ZM8.47107 6.59881C8.47107 5.48897 7.59299 4.59736 6.5 4.59736C5.40701 4.59736 4.53039 5.48897 4.53039 6.59881C4.53038 7.70864 5.40701 8.60025 6.5 8.60025C7.59299 8.60025 8.47107 7.70864 8.47107 6.59881Z" fill="white"/>
</svg>
