<svg width="32" height="32" viewBox="0 0 32 32" fill="none" xmlns="http://www.w3.org/2000/svg">
<circle cx="16" cy="16" r="16" fill="#404147"/>
<path fill-rule="evenodd" clip-rule="evenodd" d="M24.053 12.7041C24.0155 11.8539 23.878 11.2694 23.6811 10.763C23.4779 10.2254 23.1653 9.74412 22.7558 9.34402C22.3557 8.93769 21.8713 8.62195 21.3399 8.42196C20.8305 8.22502 20.2491 8.08754 19.399 8.05006C18.5425 8.0094 18.2706 8 16.0983 8C13.926 8 13.6541 8.0094 12.8007 8.04688C11.9506 8.08437 11.3661 8.22197 10.8598 8.41878C10.3221 8.62195 9.8408 8.93451 9.4407 9.34402C9.03437 9.74412 8.71875 10.2286 8.51864 10.7599C8.3217 11.2694 8.18422 11.8507 8.14674 12.7009C8.10608 13.5574 8.09668 13.8293 8.09668 16.0016C8.09668 18.1739 8.10608 18.4458 8.14356 19.2991C8.18105 20.1493 8.31865 20.7337 8.51559 21.2402C8.71875 21.7778 9.03437 22.2591 9.4407 22.6592C9.8408 23.0655 10.3253 23.3812 10.8566 23.5812C11.3661 23.7782 11.9474 23.9156 12.7977 23.9531C13.6509 23.9907 13.9229 24 16.0952 24C18.2675 24 18.5394 23.9907 19.3927 23.9531C20.2429 23.9156 20.8273 23.7782 21.3337 23.5812C22.409 23.1655 23.2591 22.3153 23.6748 21.2402C23.8717 20.7307 24.0093 20.1493 24.0467 19.2991C24.0842 18.4458 24.0936 18.1739 24.0936 16.0016C24.0936 13.8293 24.0904 13.5574 24.053 12.7041ZM22.6121 19.2366C22.5777 20.018 22.4464 20.44 22.337 20.7213C22.0682 21.4183 21.515 21.9715 20.8179 22.2404C20.5366 22.3498 20.1116 22.481 19.3333 22.5153C18.4894 22.5529 18.2363 22.5622 16.1014 22.5622C13.9666 22.5622 13.7103 22.5529 12.8695 22.5153C12.0881 22.481 11.6661 22.3498 11.3848 22.2404C11.0379 22.1122 10.7222 21.909 10.4659 21.6433C10.2002 21.3839 9.99708 21.0713 9.86888 20.7244C9.75948 20.4431 9.62823 20.018 9.59392 19.2398C9.55632 18.3959 9.54704 18.1426 9.54704 16.0078C9.54704 13.873 9.55632 13.6167 9.59392 12.776C9.62823 11.9946 9.75948 11.5726 9.86888 11.2913C9.99708 10.9443 10.2002 10.6287 10.4691 10.3723C10.7284 10.1066 11.041 9.90345 11.388 9.77538C11.6693 9.66598 12.0944 9.53473 12.8726 9.5003C13.7166 9.46281 13.9698 9.45341 16.1045 9.45341C18.2425 9.45341 18.4956 9.46281 19.3365 9.5003C20.1179 9.53473 20.5398 9.66598 20.8211 9.77538C21.168 9.90345 21.4837 10.1066 21.74 10.3723C22.0057 10.6317 22.2088 10.9443 22.337 11.2913C22.4464 11.5726 22.5777 11.9976 22.6121 12.776C22.6496 13.6199 22.659 13.873 22.659 16.0078C22.659 18.1426 22.6496 18.3927 22.6121 19.2366ZM16.0983 11.8915C13.8291 11.8915 11.9881 13.7324 11.9881 16.0017C11.9881 18.2709 13.8291 20.1119 16.0983 20.1119C18.3675 20.1119 20.2084 18.2709 20.2084 16.0017C20.2084 13.7324 18.3675 11.8915 16.0983 11.8915ZM16.0983 18.6679C14.6262 18.6679 13.4321 17.4739 13.4321 16.0017C13.4321 14.5295 14.6262 13.3355 16.0983 13.3355C17.5705 13.3355 18.7644 14.5295 18.7644 16.0017C18.7644 17.4739 17.5705 18.6679 16.0983 18.6679ZM20.371 12.6887C20.901 12.6887 21.3306 12.259 21.3306 11.7292C21.3306 11.1991 20.901 10.7696 20.371 10.7696C19.8411 10.7696 19.4114 11.1991 19.4114 11.7292C19.4114 12.259 19.8411 12.6887 20.371 12.6887Z" fill="white"/>
</svg>
