<svg width="32" height="32" viewBox="0 0 32 32" fill="none" xmlns="http://www.w3.org/2000/svg">
<circle cx="16" cy="16" r="16" fill="#404147"/>
<path d="M23.8574 20.0274C23.8144 19.9564 23.5484 19.3866 22.2683 18.2153C20.9282 16.9888 21.1082 17.188 22.7223 15.0673C23.7054 13.7757 24.0984 12.987 23.9754 12.6498C23.8584 12.3284 23.1353 12.4132 23.1353 12.4132L20.7312 12.427C20.7312 12.427 20.5531 12.4033 20.4201 12.4812C20.2911 12.5581 20.2081 12.7356 20.2081 12.7356C20.2081 12.7356 19.8271 13.7353 19.3191 14.5852C18.248 16.3785 17.8189 16.4732 17.6439 16.3618C17.2369 16.1025 17.3389 15.3187 17.3389 14.7626C17.3389 13.0245 17.6059 12.2998 16.8179 12.1125C16.5559 12.0504 16.3638 12.009 15.6948 12.0021C14.8367 11.9932 14.1097 12.005 13.6986 12.2032C13.4246 12.3353 13.2136 12.6301 13.3426 12.6468C13.5016 12.6676 13.8617 12.7425 14.0527 12.9988C14.2997 13.3291 14.2907 14.0725 14.2907 14.0725C14.2907 14.0725 14.4327 16.1183 13.9597 16.3726C13.6346 16.5471 13.1896 16.1912 12.2345 14.5635C11.7455 13.7304 11.3755 12.8085 11.3755 12.8085C11.3755 12.8085 11.3045 12.637 11.1775 12.5453C11.0234 12.4339 10.8074 12.3984 10.8074 12.3984L8.52126 12.4122C8.52126 12.4122 8.17824 12.4221 8.05223 12.569C7.94022 12.7001 8.04323 12.9702 8.04323 12.9702C8.04323 12.9702 9.83336 17.0983 11.8595 19.1795C13.7186 21.0873 15.8288 20.9621 15.8288 20.9621H16.7849C16.7849 20.9621 17.0739 20.9305 17.2209 20.7738C17.3569 20.6298 17.3519 20.3597 17.3519 20.3597C17.3519 20.3597 17.3329 19.0948 17.929 18.9084C18.516 18.725 19.2701 20.131 20.0691 20.6722C20.6732 21.0814 21.1322 20.9917 21.1322 20.9917L23.2693 20.9621C23.2693 20.9621 24.3874 20.8941 23.8574 20.0274Z" fill="white"/>
</svg>
