<svg width="264" height="332" viewBox="0 0 264 332" fill="none" xmlns="http://www.w3.org/2000/svg">
<g clip-path="url(#clip0)">
<path d="M244.562 94.7687C244.562 94.7687 245.481 77.6793 231.229 69.9114C216.977 62.1435 135.142 33.5576 135.142 33.5576C135.142 33.5576 53.1536 62.1435 38.9015 69.9114C24.6493 77.6793 25.5688 94.7687 25.5688 94.7687C25.5688 94.7687 24.1896 187.051 25.5688 228.221C26.948 269.391 110.009 320.659 121.196 326.718C132.537 332.777 134.989 332.156 134.989 332.156C134.989 332.156 137.441 332.777 148.781 326.718C160.121 320.659 243.029 269.391 244.408 228.221C245.941 187.051 244.562 94.7687 244.562 94.7687Z" fill="#23214C"/>
<path d="M235.366 227.91C236.746 187.517 235.366 95.7002 235.366 95.0788V94.7681V94.4573C235.366 94.1466 235.673 83.1162 226.784 78.3001C216.057 72.3965 159.508 52.2 134.988 43.6553C110.469 52.0446 53.9197 72.2411 43.1923 78.1447C34.3038 82.9608 34.6103 93.9913 34.6103 94.4573V94.7681V95.0788C34.6103 95.8556 33.2311 187.672 34.6103 227.91C35.6831 260.38 105.718 307.919 125.487 318.484C130.544 321.28 133.303 322.212 134.529 322.678L134.988 322.523L135.448 322.678C136.674 322.212 139.433 321.28 144.49 318.484C164.259 307.919 234.294 260.38 235.366 227.91Z" fill="white"/>
<path d="M44.8784 227.444C45.0316 232.415 48.7096 246.864 79.6659 273.43C99.2817 290.364 121.043 304.346 130.238 309.162C132.23 310.25 133.916 311.027 134.989 311.493C136.215 311.027 137.747 310.25 139.739 309.162C148.781 304.346 170.542 290.209 190.312 273.43C221.268 246.864 224.946 232.415 225.099 227.444C226.478 187.983 225.099 98.186 225.099 95.0789V94.3021V93.6807C225.099 93.2146 224.946 88.7092 221.881 87.0003C214.065 82.8056 172.841 67.4252 134.835 54.2197C96.983 67.5805 55.6058 82.8056 47.7901 87.0003C44.7251 88.7092 44.5719 93.0592 44.5719 93.836V94.4575V95.0789C44.7251 98.4968 43.4992 188.294 44.8784 227.444Z" fill="#BF1F18"/>
<path d="M101.274 4.97168L103.573 9.78778L108.63 10.4092L104.952 14.1378L105.872 19.2646L101.274 16.7789L96.6767 19.2646L97.5962 14.1378L93.9182 10.4092L98.9754 9.78778L101.274 4.97168Z" fill="#BF1F18"/>
<path d="M133.762 0L136.061 4.66074L141.272 5.43753L137.594 9.16612L138.36 14.2929L133.762 11.8072L129.318 14.2929L130.084 9.16612L126.406 5.43753L131.464 4.66074L133.762 0Z" fill="#BF1F18"/>
<path d="M166.405 4.97168L168.703 9.78778L173.76 10.4092L170.083 14.1378L171.002 19.2646L166.405 16.7789L161.807 19.2646L162.727 14.1378L159.049 10.4092L164.106 9.78778L166.405 4.97168Z" fill="#BF1F18"/>
<path d="M191.844 74.2604L219.582 24.5459H50.8549L78.5929 74.2604H78.4397L50.7017 117.45H219.429L191.691 74.2604H191.844Z" fill="#23214C"/>
<path d="M219.582 24.5465L191.844 74.261H191.69L219.428 117.451H50.7014L78.4394 74.261H78.5927L50.8546 24.5465H219.582ZM227.397 19.8857H219.582H50.8546H43.0389L46.8702 26.8769L73.229 74.1057L46.8702 114.809L42.2727 121.956H50.7014H219.428H227.857L223.26 114.809L197.054 74.261L223.566 26.8769L227.397 19.8857Z" fill="white"/>
<path d="M248.086 223.405H15.914C14.6881 223.405 13.7686 222.473 13.6153 221.385L0.282666 124.752C0.129417 123.354 1.20216 122.111 2.5814 122.111H261.419C262.798 122.111 263.871 123.354 263.717 124.752L250.385 221.385C250.231 222.473 249.312 223.405 248.086 223.405Z" fill="#23214C"/>
<path d="M54.9922 141.53C54.9922 139.511 55.7584 137.646 57.1377 136.248C58.5169 134.85 60.3559 134.073 62.3481 134.073H68.1716C70.1638 134.073 72.0028 134.85 73.382 136.248C74.7613 137.646 75.5275 139.511 75.5275 141.53V207.247H69.3976V182.079H61.1221V207.247H54.9922V141.53ZM69.3976 175.865V142.307C69.3976 141.686 69.2443 141.22 68.7846 140.909C68.3248 140.443 67.8651 140.288 67.4053 140.288H63.2676C62.6546 140.288 62.1949 140.443 61.8884 140.909C61.4286 141.375 61.2754 141.841 61.2754 142.307V175.709H69.3976V175.865Z" fill="white"/>
<path d="M81.8108 133.919H94.9902C96.9825 133.919 98.8215 134.696 100.201 136.094C101.58 137.492 102.346 139.356 102.346 141.376V151.94C102.346 155.669 102.346 159.242 102.193 162.66C102.04 166.078 101.58 169.185 100.814 171.826C100.354 173.691 99.5877 175.244 98.6682 176.642C99.8942 177.264 100.814 178.196 101.427 179.439C102.04 180.682 102.346 181.925 102.346 183.323V199.635C102.346 201.655 101.58 203.519 100.201 204.918C98.8215 206.316 96.9825 207.093 94.9902 207.093H81.8108V133.919ZM96.2162 152.096V142.308C96.2162 141.687 96.063 141.221 95.6032 140.91C95.1435 140.444 94.6837 140.289 94.224 140.289H88.094V175.866C89.933 175.866 91.4655 175.4 92.5382 174.467C93.611 173.535 94.5305 172.137 94.9902 170.273C95.6032 168.408 95.9097 165.923 96.063 162.971C96.2162 159.864 96.2162 156.291 96.2162 152.096ZM94.224 200.878C94.837 200.878 95.2967 200.723 95.6032 200.257C96.063 199.791 96.2162 199.325 96.2162 198.859V184.255C96.2162 183.634 96.063 183.167 95.6032 182.857C95.1435 182.391 94.6837 182.235 94.224 182.235H88.094V201.034H94.224V200.878Z" fill="white"/>
<path d="M121.809 133.919C123.801 133.919 125.64 134.696 127.019 136.094C128.398 137.492 129.165 139.356 129.165 141.376V152.562C129.165 156.135 129.165 159.708 129.011 162.971C128.858 166.233 128.398 169.185 127.632 171.826C125.64 178.662 121.196 181.925 114.759 181.925V207.093H108.629V133.919H121.809ZM123.035 152.096V142.308C123.035 141.687 122.882 141.221 122.422 140.91C121.962 140.444 121.502 140.289 121.043 140.289H114.913V175.866C116.752 175.866 118.284 175.4 119.357 174.467C120.43 173.535 121.349 172.137 121.809 170.273C122.422 168.408 122.728 165.923 122.882 162.971C123.035 159.864 123.035 156.291 123.035 152.096Z" fill="white"/>
<path d="M142.804 133.919H148.627C150.62 133.919 152.459 134.696 153.838 136.094C155.217 137.492 155.983 139.356 155.983 141.376V199.48C155.983 201.5 155.217 203.364 153.838 204.762C152.459 206.16 150.62 206.937 148.627 206.937H142.804C140.812 206.937 138.973 206.16 137.593 204.762C136.214 203.364 135.448 201.5 135.448 199.48V141.531C135.448 139.512 136.214 137.648 137.593 136.249C138.973 134.696 140.812 133.919 142.804 133.919ZM143.723 200.878H147.861C148.474 200.878 148.934 200.723 149.24 200.257C149.7 199.791 149.853 199.325 149.853 198.859V142.308C149.853 141.687 149.7 141.221 149.24 140.91C148.781 140.444 148.321 140.289 147.861 140.289H143.723C143.11 140.289 142.651 140.444 142.344 140.91C141.884 141.376 141.731 141.842 141.731 142.308V198.859C141.731 199.48 141.884 199.946 142.344 200.257C142.651 200.723 143.11 200.878 143.723 200.878Z" fill="white"/>
<path d="M175.446 133.919C177.439 133.919 179.277 134.696 180.657 136.094C182.036 137.492 182.802 139.356 182.802 141.376V152.562C182.802 156.135 182.802 159.708 182.649 162.971C182.496 166.233 182.036 169.185 181.27 171.826C179.277 178.662 174.833 181.925 168.397 181.925V207.093H162.267V133.919H175.446ZM176.672 152.096V142.308C176.672 141.687 176.519 141.221 176.059 140.91C175.6 140.444 175.14 140.289 174.68 140.289H168.55V175.866C170.389 175.866 171.922 175.4 172.994 174.467C174.067 173.535 174.987 172.137 175.446 170.273C176.059 168.408 176.366 165.923 176.519 162.971C176.672 159.864 176.672 156.291 176.672 152.096Z" fill="white"/>
<path d="M189.085 141.53C189.085 139.511 189.851 137.646 191.231 136.248C192.61 134.85 194.449 134.073 196.441 134.073H202.265C204.257 134.073 206.096 134.85 207.475 136.248C208.854 137.646 209.621 139.511 209.621 141.53V207.247H203.491V182.079H195.215V207.247H189.085V141.53ZM203.491 175.865V142.307C203.491 141.686 203.337 141.22 202.878 140.909C202.418 140.443 201.958 140.288 201.498 140.288H197.361C196.748 140.288 196.288 140.443 195.981 140.909C195.522 141.375 195.368 141.841 195.368 142.307V175.709H203.491V175.865Z" fill="white"/>
<path d="M199.813 73.3291H74.7617V74.572H199.813V73.3291Z" fill="white"/>
<path d="M199.813 68.5127H74.7617V69.7556H199.813V68.5127Z" fill="white"/>
<path d="M199.813 63.542H71.6965V64.7848H199.813V63.542Z" fill="white"/>
<path d="M201.958 58.7256H68.3254V59.9684H201.958V58.7256Z" fill="white"/>
<path d="M205.023 53.9092H65.1072V55.152H205.023V53.9092Z" fill="white"/>
<path d="M207.781 49.0928H62.3484V50.3356H207.781V49.0928Z" fill="white"/>
<path d="M210.233 44.1221H58.9768V45.3649H210.233V44.1221Z" fill="white"/>
<path d="M212.992 39.3057H56.9849V40.5485H212.992V39.3057Z" fill="white"/>
<path d="M215.751 34.4893H54.533V35.7321H215.751V34.4893Z" fill="white"/>
<path d="M218.356 29.6729H52.8472V30.9157H218.356V29.6729Z" fill="white"/>
<path d="M94.2451 74.1038L93.0591 73.7891L81.5735 118.276L82.7596 118.591L94.2451 74.1038Z" fill="white"/>
<path d="M114.087 74.3307L113.022 74.1973L107.607 118.6L108.671 118.734L114.087 74.3307Z" fill="white"/>
<path d="M186.456 118.162L174.975 73.6748L173.789 73.9894L185.27 118.476L186.456 118.162Z" fill="white"/>
<path d="M160.426 118.647L155.077 74.2354L154.012 74.3672L159.361 118.779L160.426 118.647Z" fill="white"/>
<path d="M134.529 73.7949H133.303V118.383H134.529V73.7949Z" fill="white"/>
<path d="M78.2867 246.708C64.954 241.271 65.1073 228.531 65.1073 228.531L105.565 249.038L106.484 255.097C98.5155 253.233 86.5621 249.971 78.2867 246.708Z" fill="white"/>
<path d="M107.71 262.555C103.419 262.4 92.5386 261.467 84.1099 259.914C73.5357 258.05 68.9382 246.087 68.9382 246.087C68.9382 246.087 96.8296 254.321 106.791 257.117L107.71 262.555Z" fill="white"/>
<path d="M97.289 270.944C85.9486 272.498 78.4395 262.555 78.4395 262.555L107.863 264.108L108.629 269.235C106.484 269.701 102.959 270.012 97.289 270.944Z" fill="white"/>
<path d="M107.097 276.693C99.5881 279.023 91.6191 274.362 91.6191 274.362L108.936 270.944L109.703 275.76C108.936 276.071 108.17 276.382 107.097 276.693Z" fill="white"/>
<path d="M193.529 246.708C206.862 241.271 206.709 228.531 206.709 228.531L166.251 249.038L165.332 255.097C173.3 253.233 185.254 249.971 193.529 246.708Z" fill="white"/>
<path d="M164.106 262.555C168.397 262.4 179.277 261.467 187.706 259.914C198.28 258.05 202.878 246.087 202.878 246.087C202.878 246.087 174.986 254.321 164.872 257.117L164.106 262.555Z" fill="white"/>
<path d="M174.526 270.944C185.867 272.498 193.376 262.555 193.376 262.555L163.952 264.108L163.186 269.235C165.178 269.701 168.856 270.012 174.526 270.944Z" fill="white"/>
<path d="M164.719 276.693C172.228 279.023 180.197 274.362 180.197 274.362L162.88 270.944L162.114 275.76C162.727 276.071 163.646 276.382 164.719 276.693Z" fill="white"/>
<path d="M169.929 261.933C169.929 281.353 154.451 297.044 135.295 297.044C116.139 297.044 100.661 281.197 100.661 261.933C100.661 242.513 116.139 226.822 135.295 226.822C154.451 226.822 169.929 242.513 169.929 261.933Z" fill="white"/>
<path d="M166.098 261.933C166.098 279.178 152.306 293.16 135.295 293.16C118.284 293.16 104.492 279.178 104.492 261.933C104.492 244.689 118.284 230.706 135.295 230.706C152.306 230.551 166.098 244.533 166.098 261.933Z" fill="#23214C"/>
<path d="M164.413 261.933C164.413 278.246 151.386 291.451 135.295 291.451C119.204 291.451 106.178 278.246 106.178 261.933C106.178 245.621 119.204 232.415 135.295 232.415C151.386 232.26 164.413 245.621 164.413 261.933Z" fill="white"/>
<path d="M141.731 267.682L141.885 267.371C141.885 267.371 143.264 264.73 144.183 261.933C145.716 257.583 146.022 255.719 146.022 255.564V255.253L145.869 255.098C145.716 254.942 142.957 252.767 141.118 251.369C139.126 250.126 135.908 248.262 135.755 248.107L135.448 247.951L135.142 248.107C135.142 248.107 131.77 249.971 129.778 251.369C127.786 252.612 125.027 254.942 125.027 255.098L124.874 255.253V255.564C124.874 255.719 125.181 257.583 126.713 261.933C127.633 264.574 129.012 267.215 129.012 267.371L129.165 267.526H129.471C129.471 267.526 132.23 267.837 135.601 267.837C138.513 267.837 141.578 267.526 141.731 267.526V267.682Z" fill="#23214C"/>
<path d="M116.445 253.389L116.752 253.234L116.598 252.923C116.598 252.923 115.066 248.107 116.292 244.068L116.445 243.446H115.832C115.832 243.446 115.832 243.446 115.679 243.446C115.219 243.446 113.38 243.602 110.928 245.777C110.775 246.087 106.944 252.146 106.791 258.361C106.791 258.516 107.71 261.468 110.009 262.089L110.469 262.245L110.622 261.779C110.622 261.934 113.687 255.098 116.445 253.389Z" fill="#23214C"/>
<path d="M163.799 258.361C163.799 252.146 159.968 245.932 159.662 245.777C157.21 243.602 155.371 243.446 154.911 243.446H154.758H154.145L154.298 244.068C155.524 247.952 153.991 252.768 153.991 252.923L153.838 253.234L154.145 253.389C156.903 255.098 159.968 261.934 159.968 261.934L160.121 262.4L160.581 262.245C162.88 261.623 163.799 258.671 163.799 258.361Z" fill="#23214C"/>
<path d="M126.407 236.765C131.311 236.765 135.448 239.251 135.448 239.251L135.755 239.406L136.061 239.251C139.126 237.231 144.95 236.455 144.95 236.455L145.716 236.299L145.256 235.678C144.03 233.658 141.578 232.726 141.425 232.726C139.586 232.26 137.594 231.949 135.448 231.949C131.464 231.949 128.399 232.881 128.246 232.881C126.1 234.435 125.794 235.989 125.794 236.144L125.64 236.765H126.253C126.253 236.765 126.253 236.765 126.407 236.765Z" fill="#23214C"/>
<path d="M123.954 276.537V276.071H123.494C123.494 276.071 123.341 276.071 123.035 276.071C121.809 276.071 118.284 275.76 113.993 273.43L113.533 273.119L113.38 273.585C113.38 273.741 112.154 276.382 113.687 280.576C113.84 280.732 116.445 285.392 123.494 288.344H123.648H123.801C123.954 288.344 127.632 288.034 129.778 285.548L130.084 285.237L129.778 284.926C128.245 283.373 124.107 278.867 123.954 276.537Z" fill="#23214C"/>
<path d="M157.516 272.964L157.056 273.275C152.918 275.605 149.394 275.916 148.168 275.916C147.861 275.916 147.708 275.916 147.708 275.916H147.248V276.382C147.095 278.712 142.957 283.373 141.425 284.926L141.118 285.237L141.425 285.548C143.57 287.878 147.248 288.344 147.401 288.344H147.555H147.708C154.757 285.393 157.516 280.732 157.516 280.576C159.048 276.382 157.822 273.741 157.822 273.585L157.516 272.964Z" fill="#23214C"/>
<path d="M114.147 254.321C114.453 254.321 114.76 254.165 115.219 253.855C115.679 253.544 116.292 253.389 116.752 253.389C119.817 253.544 121.809 254.476 123.495 255.098C123.801 255.253 124.108 255.253 124.261 255.408C126.1 256.03 125.947 256.806 125.947 256.806L126.407 256.962C126.56 256.651 126.866 255.564 126.56 255.253C126.407 255.098 126.253 255.098 126.1 255.098C125.947 255.098 125.947 255.098 125.794 255.098C125.181 255.098 124.721 254.787 124.721 254.787C122.269 253.699 117.978 252.767 116.905 252.767C116.139 252.767 115.832 251.835 115.832 251.835V251.68H115.526L114.913 252.301L114.147 252.767C113.993 253.078 113.534 253.855 113.84 254.165C113.687 254.165 113.84 254.321 114.147 254.321Z" fill="#23214C"/>
<path d="M155.371 251.68C155.371 251.68 155.064 252.612 154.298 252.612C153.378 252.612 149.087 253.544 146.482 254.632C146.482 254.632 145.869 254.942 145.409 254.942C145.256 254.942 145.103 254.942 145.103 254.942C144.95 254.942 144.796 254.942 144.643 255.098C144.337 255.564 144.796 256.496 144.796 256.807L145.256 256.651C145.256 256.651 145.103 255.874 146.942 255.253C147.248 255.098 147.402 255.098 147.708 254.942C149.394 254.321 151.386 253.544 154.451 253.233C154.911 253.233 155.524 253.389 155.984 253.699C156.443 254.01 156.903 254.165 157.056 254.165C157.21 254.165 157.363 254.01 157.363 254.01C157.516 253.699 157.21 252.923 157.056 252.612L156.29 252.146L155.677 251.524L155.371 251.68Z" fill="#23214C"/>
<path d="M113.84 273.43C111.388 271.1 110.469 264.575 110.469 262.866C110.469 261.468 110.622 261.157 110.622 261.157V261.002V260.846C110.162 259.759 110.162 259.759 110.009 259.759C110.009 259.759 109.856 259.759 109.702 260.07C109.549 260.07 109.549 260.225 109.549 260.225L109.396 260.38H109.549L109.089 261.312L109.856 260.536C109.856 260.691 110.009 261.157 110.009 262.089C110.009 264.886 110.928 269.391 112.308 271.877C113.074 273.43 113.84 274.362 113.84 274.362L115.219 274.984C115.832 275.295 116.139 275.605 116.445 275.605C116.599 275.605 116.599 275.605 116.599 275.605C116.752 275.605 116.752 275.45 116.752 275.45L116.905 275.295L115.373 274.673C114.913 274.362 114.453 273.896 113.84 273.43Z" fill="#23214C"/>
<path d="M161.5 260.07C161.5 259.914 161.347 259.759 161.194 259.759C161.041 259.604 161.041 259.604 160.887 259.604C160.734 259.604 160.734 259.604 159.968 260.536L159.815 260.691L159.968 260.846C159.968 260.846 160.121 261.157 160.274 262.4C160.274 264.109 159.661 270.945 157.209 273.275C156.596 273.897 156.137 274.207 155.677 274.518L154.145 275.139L154.298 275.295C154.298 275.295 154.298 275.295 154.451 275.45H154.604C154.911 275.45 155.371 275.295 155.83 274.829L157.209 274.207C157.209 274.207 157.976 273.275 158.742 271.721C160.121 269.08 160.887 264.264 160.887 261.623C160.887 260.846 161.041 260.38 161.041 260.225L161.194 260.38L161.96 261.312L161.5 260.07C161.654 260.07 161.5 260.07 161.5 260.07Z" fill="#23214C"/>
<path d="M123.342 278.867C123.342 278.867 123.495 278.867 123.342 278.867C123.342 279.178 123.495 279.489 123.495 279.489L123.955 279.333C123.955 279.333 123.955 279.023 123.801 278.712C123.648 278.091 123.495 277.003 123.801 276.226C124.261 274.983 129.012 268.148 129.012 268.148C129.012 268.148 129.625 267.371 130.391 267.216C130.698 267.06 130.851 266.905 130.851 266.75C131.004 266.283 130.544 265.973 130.391 265.817L128.859 265.973H128.552L128.705 266.283C128.705 266.283 129.012 266.905 128.399 267.837C127.786 269.08 123.035 275.916 123.035 276.071C123.035 276.071 122.729 276.382 121.656 276.382C121.349 276.382 121.196 276.537 121.196 276.692C121.043 277.003 121.503 277.469 123.035 278.712C123.188 278.712 123.342 278.867 123.342 278.867Z" fill="#23214C"/>
<path d="M148.934 276.071C147.862 276.071 147.555 275.761 147.555 275.761C147.555 275.761 142.958 268.769 142.191 267.527C141.578 266.439 141.885 265.973 141.885 265.973L142.038 265.662L140.199 265.507C140.046 265.507 139.586 265.973 139.739 266.439C139.739 266.594 139.893 266.75 140.199 266.905C140.965 267.216 141.578 267.837 141.578 267.837C141.578 267.837 146.329 274.673 146.789 275.916C147.095 276.693 146.942 277.78 146.789 278.402C146.789 278.557 146.636 278.868 146.636 279.023H147.095C147.095 279.023 147.095 278.868 147.249 278.557C147.249 278.557 147.402 278.402 147.555 278.402C149.088 277.314 149.394 276.848 149.394 276.382C149.394 276.227 149.241 276.071 148.934 276.071Z" fill="#23214C"/>
<path d="M135.295 286.014C129.625 285.859 128.859 284.771 128.859 284.771L128.399 283.995V285.237C128.399 285.237 129.625 286.48 135.142 286.48C135.295 286.48 135.602 286.48 135.755 286.48C141.119 286.48 142.651 285.082 142.804 284.927L143.111 283.218L142.498 283.995C142.804 284.15 141.119 286.17 135.295 286.014Z" fill="#23214C"/>
<path d="M115.832 244.689C115.832 244.689 116.905 241.427 120.276 239.097C123.648 236.766 127.479 236.3 127.479 236.3H127.632V235.679H127.479C127.479 235.679 123.188 236.145 119.817 238.786C116.445 241.427 114.913 244.379 114.913 244.534V245.777L115.832 244.689Z" fill="#23214C"/>
<path d="M150.16 238.785C153.532 241.116 154.604 244.378 154.604 244.378L155.524 245.31V244.067C155.524 243.912 153.991 240.96 150.62 238.319C147.248 235.678 143.111 235.212 142.957 235.212H142.804V235.833H142.957C142.957 235.989 146.942 236.455 150.16 238.785Z" fill="#23214C"/>
<path d="M134.682 249.971C135.141 249.971 135.601 249.971 135.601 249.971L136.521 249.505L136.367 249.35C136.061 249.039 135.754 248.573 135.754 248.418C135.754 248.263 135.754 247.175 135.908 245.777C135.908 243.446 136.061 240.029 136.061 239.562C136.214 238.63 136.521 238.475 136.521 238.475L137.287 238.164L135.295 237.854L134.528 238.786H134.835C134.988 238.786 135.295 238.941 135.295 239.562C135.295 240.495 134.988 248.263 134.988 248.263C134.988 248.263 134.988 248.884 134.069 249.35C133.915 249.35 133.609 249.505 133.762 249.816C133.915 249.971 134.222 249.971 134.682 249.971Z" fill="#23214C"/>
<path d="M123.954 287.723L123.801 287.102L122.882 287.568L123.341 287.723C123.341 287.723 123.495 287.723 123.495 287.878C123.495 287.878 123.495 288.034 123.648 288.034C123.954 288.5 124.414 289.121 124.874 289.432L125.18 289.121C125.027 289.277 124.261 288.655 123.954 287.723Z" fill="#23214C"/>
<path d="M146.942 287.723C146.635 288.655 145.869 289.276 145.869 289.276L146.176 289.587C146.635 289.276 147.095 288.5 147.402 288.189C147.402 288.034 147.555 288.034 147.555 288.034C147.708 287.878 147.708 287.878 147.708 287.878L148.168 287.723L147.248 287.257L146.942 287.723Z" fill="#23214C"/>
<path d="M114.147 280.111C114.147 280.111 112.767 280.111 111.848 279.179L111.541 279.489C111.541 279.489 112.308 280.577 114.3 280.732H114.606L114.147 280.111Z" fill="#23214C"/>
<path d="M156.903 279.799L156.443 280.421H156.75C158.435 280.265 159.048 279.178 159.048 279.178L158.742 278.867C158.129 279.799 156.903 279.799 156.903 279.799Z" fill="#23214C"/>
<path d="M107.557 258.05C107.557 258.05 107.403 258.05 107.25 258.05C106.79 258.205 106.024 259.293 106.024 259.448V260.225H106.484C106.637 259.448 107.71 258.516 107.71 258.516C107.863 258.361 108.016 258.205 108.016 258.05C107.863 258.05 107.71 258.05 107.557 258.05Z" fill="#23214C"/>
<path d="M111.388 246.398C111.235 245.776 111.848 244.689 111.848 244.689L111.541 244.533L111.081 245.155C110.775 245.776 110.928 246.553 111.081 246.553L111.388 246.398Z" fill="#23214C"/>
<path d="M164.566 259.603C164.413 259.448 163.646 258.36 163.187 258.205C163.033 258.205 163.033 258.205 162.88 258.205C162.727 258.205 162.727 258.205 162.727 258.36C162.727 258.516 162.727 258.671 162.88 258.827C162.88 258.827 163.953 259.759 164.106 260.535H164.566V259.603Z" fill="#23214C"/>
<path d="M159.202 246.242L159.662 246.398C159.662 246.398 159.815 245.621 159.662 244.999L159.202 244.378L158.895 244.533C158.742 244.689 159.355 245.621 159.202 246.242Z" fill="#23214C"/>
<path d="M128.092 234.125L129.931 233.037C129.931 233.037 134.069 232.105 141.118 233.037C141.118 233.193 134.528 232.727 128.092 234.125Z" fill="white"/>
<path d="M134.682 251.059L127.326 255.875L129.012 261.468L129.778 257.428L134.682 251.059Z" fill="white"/>
<path d="M115.066 244.223L111.541 246.087C111.541 246.087 110.162 248.417 109.396 250.903L112.307 246.398L115.066 244.223Z" fill="white"/>
<path d="M158.895 245.621L155.524 243.912C155.524 243.912 155.83 245.466 155.83 246.242L156.137 245L158.895 245.621Z" fill="white"/>
<path d="M31.0857 168.098H32.3117C32.7714 168.098 33.0779 168.253 33.3844 168.564C33.6909 168.874 33.8442 169.185 33.8442 169.651V172.603C33.8442 173.069 33.8442 173.691 33.8442 174.157C33.8442 174.778 33.6909 175.244 33.5377 175.71C33.3844 176.176 33.0779 176.642 32.7714 176.953C32.4649 177.264 32.0052 177.575 31.3922 177.575C31.239 177.575 31.239 177.575 31.0857 177.73C30.9325 177.885 30.9325 177.885 30.9325 178.041V181.459H33.8442V182.701H29.7065V177.885C29.7065 177.575 29.8597 177.108 30.013 176.953C30.3195 176.642 30.4727 176.487 30.9325 176.487C31.239 176.487 31.5455 176.332 31.852 176.176C32.1585 176.021 32.1585 175.71 32.3117 175.4C32.4649 175.089 32.4649 174.467 32.4649 174.001C32.4649 173.38 32.4649 172.758 32.4649 171.826V169.807C32.4649 169.651 32.4649 169.651 32.3117 169.496C32.1585 169.341 32.1585 169.341 32.0052 169.341H31.239C31.0857 169.341 31.0857 169.341 30.9325 169.496C30.7792 169.651 30.7792 169.651 30.7792 169.807V170.273H29.5532V169.651C29.5532 169.185 29.7065 168.874 30.013 168.564C30.3195 168.253 30.7792 168.098 31.0857 168.098Z" fill="white"/>
<path d="M36.4495 168.098H37.6755C38.1352 168.098 38.4417 168.253 38.7482 168.564C39.0547 168.874 39.208 169.185 39.208 169.651V181.303C39.208 181.769 39.0547 182.08 38.7482 182.391C38.4417 182.701 38.1352 182.857 37.6755 182.857H36.4495C35.9897 182.857 35.6832 182.701 35.3767 182.391C35.0702 182.08 34.917 181.769 34.917 181.303V169.651C34.917 169.185 35.0702 168.874 35.3767 168.564C35.6832 168.253 36.143 168.098 36.4495 168.098ZM36.756 181.458H37.5222C37.6755 181.458 37.6755 181.458 37.8287 181.303C37.982 181.148 37.982 181.148 37.982 180.992V169.651C37.982 169.496 37.982 169.496 37.8287 169.341C37.6755 169.185 37.6755 169.185 37.5222 169.185H36.756C36.6027 169.185 36.6027 169.185 36.4495 169.341C36.2962 169.496 36.2962 169.496 36.2962 169.651V180.992C36.2962 181.148 36.2962 181.148 36.4495 181.303C36.4495 181.458 36.6027 181.458 36.756 181.458Z" fill="white"/>
<path d="M224.792 168.098H226.018C226.478 168.098 226.784 168.253 227.091 168.564C227.397 168.874 227.55 169.185 227.55 169.651V172.603C227.55 173.069 227.55 173.691 227.55 174.157C227.55 174.778 227.397 175.244 227.244 175.71C227.091 176.176 226.784 176.642 226.478 176.953C226.171 177.264 225.711 177.575 225.099 177.575C224.945 177.575 224.945 177.575 224.792 177.73C224.639 177.885 224.639 177.885 224.639 178.041V181.459H227.55V182.701H223.413V177.885C223.413 177.575 223.566 177.108 223.719 176.953C224.026 176.642 224.179 176.487 224.639 176.487C224.945 176.487 225.252 176.332 225.558 176.176C225.865 176.021 225.865 175.71 226.018 175.4C226.171 175.089 226.171 174.467 226.171 174.001C226.171 173.38 226.171 172.758 226.171 171.826V169.807C226.171 169.651 226.171 169.651 226.018 169.496C225.865 169.341 225.865 169.341 225.712 169.341H224.945C224.792 169.341 224.792 169.341 224.639 169.496C224.486 169.651 224.486 169.651 224.486 169.807V170.273H223.26V169.651C223.26 169.185 223.413 168.874 223.719 168.564C224.026 168.253 224.332 168.098 224.792 168.098Z" fill="white"/>
<path d="M230.003 169.341V168.098H231.229V181.459H232.761V182.701H228.624V181.459H230.003V170.583H228.624V169.341H230.003Z" fill="white"/>
<path d="M206.403 93.0596H63.8811V94.3025H206.403V93.0596Z" fill="white"/>
<path d="M242.416 216.88H21.8907C20.9712 216.88 20.205 216.258 20.0517 215.326L7.17881 129.724C7.02556 129.258 7.17881 128.636 7.63855 128.17C7.94505 127.704 8.55805 127.549 9.01779 127.549H255.135C255.748 127.549 256.208 127.86 256.515 128.17C256.821 128.636 256.974 129.102 256.974 129.724L244.102 215.326C244.102 216.258 243.335 216.88 242.416 216.88ZM9.01779 129.102C8.86454 129.102 8.86454 129.102 8.71129 129.258C8.71129 129.258 8.55805 129.413 8.71129 129.568L21.5842 215.171C21.5842 215.326 21.7374 215.481 21.8907 215.481H242.416C242.569 215.481 242.722 215.326 242.722 215.171L255.595 129.568C255.595 129.413 255.595 129.413 255.595 129.258C255.595 129.258 255.442 129.102 255.289 129.102H9.01779Z" fill="white"/>
</g>
<defs>
<clipPath id="clip0">
<rect width="263.435" height="332" fill="white" transform="translate(0.282715)"/>
</clipPath>
</defs>
</svg>
