<svg width="350" height="210" viewBox="0 0 350 210" fill="none" xmlns="http://www.w3.org/2000/svg">
<path d="M304.928 31.0199C312.059 62.3538 298.374 95.9093 276.363 116.025C251.873 138.309 217.129 144.86 186.086 141.173C149.121 136.525 114.378 115.555 76.5386 120.01C42.8168 123.985 10.9909 143.8 1.26372 181.271C-6.46112 210.539 35.3843 221.349 43.1708 192.507C51.1614 162.32 91.4442 165.095 113.76 170.482C152.019 179.934 187.658 193.326 227.648 187.195C264.298 181.413 299.773 163.381 322.944 130.618C345.725 97.9216 355.409 57.4004 346.203 17.2452C339.319 -12.3833 298.269 1.57158 304.928 31.0199Z" fill="#FF6A9B"/>
</svg>
