<svg width="269" height="418" viewBox="0 0 269 418" fill="none" xmlns="http://www.w3.org/2000/svg">
<path d="M81.7721 408.093C106.82 394.917 123.444 367.796 132.756 339.912C139.377 320.017 142.182 299.109 141.525 278.259C149.217 277.908 156.7 277.712 164.046 278.284C194.726 280.448 224.305 293.926 241.75 322.54C245.803 329.378 256.048 328.975 261.096 324.078C267.223 318.216 266.763 309.555 262.5 302.871C234.45 257.259 185.33 245.387 137.821 248.992C137.462 246.924 136.961 244.627 136.427 242.522C129.252 211.32 117.924 182.02 120.882 148.997C126.866 82.5674 179.747 31.3196 240.709 32.7743C258.266 33.1344 260.154 3.06934 242.422 2.67193C189.925 1.62908 138.098 31.5951 112.211 82.2291C99.1465 107.719 91.9738 136.856 92.7751 166.101C93.756 196.38 104.199 223.499 110.315 252.484C104.689 253.474 99.1704 254.886 93.8607 256.143C64.7299 263.669 35.7294 276.599 16.8297 303.234C0.0844798 326.944 -2.50944 363.031 12.2275 388.478C27.7375 414.688 57.1085 421.152 81.7721 408.093ZM30.907 344.671C33.2997 317.899 56.0967 302.052 76.9329 293.155C88.7295 288.105 101.406 284.237 114.194 281.788C114.603 301.988 110.675 322.059 102.824 340.696C94.6956 359.871 80.0709 380.847 59.9797 384.526C38.9452 388.403 29.1478 364.806 30.907 344.671Z" fill="#FFC785" stroke="#FFC785" stroke-width="5"/>
</svg>
