<svg width="179" height="212" viewBox="0 0 179 212" fill="none" xmlns="http://www.w3.org/2000/svg">
<path d="M23.0205 35.3145C40.2449 25.4492 62.4347 29.0013 78.1622 40.2735C95.6032 52.8303 105.568 74.7599 108.845 95.9194C112.595 121.158 106.331 147.604 115.604 171.927C123.869 193.602 141.143 211.422 164.947 211.711C183.562 212.022 182.588 182.54 164.213 182.119C145.01 181.784 139.572 154.657 138.829 138.996C137.684 112.113 139.322 86.317 128.684 60.8453C118.838 37.5275 101.975 16.9995 78.5869 7.03583C55.3058 -2.68097 29.711 -2.44111 7.64938 10.2464C-8.61278 19.6682 6.82496 44.5574 23.0205 35.3145Z" fill="#FF6A9B"/>
</svg>
