<svg width="213" height="208" viewBox="0 0 213 208" fill="none" xmlns="http://www.w3.org/2000/svg">
<path d="M175.58 83.0893C174.821 98.4991 163.58 111.756 150.089 117.603C135.092 124.063 117.212 121.769 102.53 115.359C85.0819 107.608 70.9331 92.7339 51.8236 89.0115C34.793 85.6963 16.5424 89.9114 6.70643 105.561C-1.03852 117.765 17.961 129.076 25.6784 117.076C33.6778 104.492 53.0022 111.891 63.1858 117.75C80.6153 127.894 96.2296 139.44 116.618 142.724C135.326 145.659 155.119 142.814 170.891 131.363C186.465 119.883 196.693 102.832 197.633 83.0741C198.283 68.4816 176.316 68.6135 175.58 83.0893Z" fill="#63C0B7"/>
<path d="M55.4927 139.718C56.9593 145.104 65.774 144.637 71.6302 141.695C72.8161 141.104 73.9164 140.449 75.0168 139.795C74.87 141.228 74.7231 142.661 74.6741 144.234C74.3435 151.565 77.0691 161.042 81.9838 160.684C87.1919 160.277 89.014 153.32 88.6111 145.642C88.5256 143.701 88.1957 141.644 87.7802 139.523C88.6971 140.073 89.6873 140.61 90.6653 141.072C96.7167 144.043 105.531 144.515 106.705 139.153C107.916 133.551 102.61 129.125 95.9844 126.798C94.7863 126.374 93.5271 126.038 92.2068 125.791C93.0382 124.869 93.8696 123.946 94.6154 122.96C98.8703 117.55 101.927 108.429 97.7342 105.301C93.3578 101.97 88.0027 106.158 84.0901 112.293C82.9408 114.051 81.9992 116.165 81.021 118.521C79.8354 115.826 78.613 113.371 77.2439 111.411C72.941 105.251 67.452 101.09 63.234 104.382C59.2116 107.485 62.7196 116.673 67.2793 122.086C68.5751 123.589 69.8465 124.94 71.179 126.202C69.1128 126.472 67.2912 126.857 65.5796 127.458C59.0755 129.648 53.9771 134.027 55.4927 139.718Z" fill="#FFC785"/>
</svg>
