<svg width="134" height="126" viewBox="0 0 134 126" fill="none" xmlns="http://www.w3.org/2000/svg">
<path d="M9.85599 103.648C14.4162 105.982 19.754 106.802 24.7486 108.218C30.5943 109.702 36.44 111.186 42.3313 112.51C67.9907 118.398 94.1056 122.681 120.308 125.426C126.91 126.084 130.599 121.057 130.953 116.125C134.715 112.681 134.631 107.451 131.997 103.234C119.841 82.2619 107.479 61.4045 94.7024 40.7769C88.2793 30.2797 81.6496 19.8973 75.1354 9.72129C71.8783 4.63327 67.7701 -0.522613 61.1257 0.195917C54.3202 0.868759 51.0239 6.35413 47.6576 11.4726C34.3081 32.1527 21.0041 52.6722 7.65464 73.3523C4.49503 78.3559 0.736541 83.0161 0.385922 89.1632C-0.0557842 95.6316 4.21352 100.833 9.85599 103.648ZM25.2265 81.9791C29.9204 74.6344 34.7754 67.3354 39.4693 59.9907C44.1631 52.646 49.0181 45.3469 53.712 38.0022C56.185 34.1921 58.6581 30.382 61.1311 26.5719C61.4288 26.1358 61.7721 25.5391 62.1154 24.9424C63.0856 26.4321 63.9401 27.7155 64.9102 29.2052C67.3127 33.0098 69.5997 36.6081 72.0022 40.4127C77.154 48.6408 82.2603 57.0294 87.4121 65.2574C95.3376 78.4365 103.263 91.6154 110.982 104.909C82.3627 101.479 53.9222 96.1897 25.9582 88.6067C24.5081 88.1955 23.2192 87.83 21.7692 87.4188C22.7991 85.6287 23.99 83.8842 25.2265 81.9791Z" fill="#CAA0F0"/>
</svg>
