<svg width="171" height="161" viewBox="0 0 171 161" fill="none" xmlns="http://www.w3.org/2000/svg">
<path d="M161.568 57.421C135.601 38.5885 122.399 50.0741 118.95 79.4697C118.528 82.9089 118.791 137.401 113.085 133.587C104.857 128.045 107.459 87.5375 108.256 77.9709C110.327 54.8074 122.149 30.47 99.6457 9.67594C78.5192 -9.89589 61.6748 3.33577 58.813 27.5185C55.822 53.0807 64.6132 62.154 80.5793 81.6399C86.2051 88.4288 114.304 126.942 90.6438 116.377C79.3866 111.346 63.8138 79.1748 55.6846 70.4618C44.3222 58.0664 9.85421 35.5551 1.69373 64.3105C-4.56744 86.5845 16.137 103.234 32.4469 108.44C51.1738 114.369 75.2703 116.03 91.7747 128.708C121.529 151.672 83.3385 133.881 71.09 130.945C53.2007 126.685 10.5069 124.077 15.5863 153.675C20.912 184.886 51.9295 178.449 67.1116 170.23C84.5905 160.835 97.8698 153.829 116.843 155.01C120.605 155.164 126.469 179.568 135.176 160.902C138.42 153.851 124.133 149.332 124.678 146.7C127.252 136.206 122.255 141.801 128.206 134.506C136.081 124.708 151.098 124.624 159.487 110.402C167.119 97.8973 179.255 70.21 161.568 57.421Z" fill="#63C0B7"/>
</svg>
