<svg width="116" height="121" viewBox="0 0 116 121" fill="none" xmlns="http://www.w3.org/2000/svg">
<path d="M40.3334 8.476C38.0602 11.2421 36.7037 14.7643 34.9916 17.9635C33.106 21.7336 31.2204 25.5037 29.4376 29.3288C21.5883 45.9708 14.7662 63.1625 8.9791 80.6426C7.5442 85.0521 10.4215 88.3178 13.7318 89.2929C15.5189 92.3735 19.0976 93.0939 22.3671 91.9231C38.486 86.7429 54.5575 81.4046 70.5339 75.75C78.6524 72.926 86.7235 69.9439 94.6366 67.01C98.5931 65.5431 102.723 63.5051 103.226 58.8622C103.784 54.116 100.535 51.0499 97.5475 47.9906C85.4385 35.8016 73.4322 23.6675 61.3232 11.4784C58.3829 8.57729 55.7663 5.31836 51.6264 4.16484C47.2811 2.90137 43.096 5.04248 40.3334 8.476ZM52.8146 22.1918C57.1223 26.4885 61.3747 30.8885 65.6824 35.1852C69.9901 39.4819 74.2425 43.8819 78.5502 48.1786C80.7792 50.4336 83.0081 52.6885 85.2371 54.9434C85.49 55.2116 85.8456 55.5347 86.2013 55.8578C85.0404 56.2985 84.0374 56.6911 82.8766 57.1318C79.9229 58.2062 77.1273 59.2324 74.1737 60.3068C67.7926 62.6003 61.3089 64.8389 54.9278 67.1324C44.7559 70.5832 34.5839 74.0341 24.3645 77.3267C30.9801 58.2987 38.8361 39.6689 48.1854 21.7057C48.6825 20.7769 49.1243 19.9513 49.6214 19.0225C50.6883 19.9918 51.7001 21.0643 52.8146 22.1918Z" fill="#BE95E3"/>
</svg>
