<svg width="548" height="392" viewBox="0 0 548 392" fill="none" xmlns="http://www.w3.org/2000/svg">
<path d="M51.536 280.708C82.8146 317.621 136.749 328.727 182.319 316.977C232.902 303.819 274.177 263.229 299.45 218.618C329.231 165.272 337.029 100.612 378.722 54.0619C415.884 12.5816 470.497 -12.5157 525.401 7.29032C568.407 22.5912 541.442 87.8329 498.895 72.9872C454.516 57.237 419.275 113.368 404.435 147.83C379.257 207.104 361.382 266.33 315.59 314.281C273.422 358.085 217.481 389.606 155.416 391.841C93.8053 393.614 35.232 371.083 -4.78725 323.687C-34.2282 288.595 22.098 246.074 51.536 280.708Z" fill="#CAA0F0"/>
</svg>
