<svg width="298" height="316" viewBox="0 0 298 316" fill="none" xmlns="http://www.w3.org/2000/svg">
<path d="M40.8038 7.24967C30.5001 27.1614 20.9934 48.1627 19.5309 70.8635C17.8157 98.0978 32.5939 119.069 52.4241 136.122C62.9361 145.16 73.4481 154.198 81.4173 165.096C66.764 166.557 52.5108 169.175 39.3234 174.47C13.5102 184.761 -6.07957 208.899 2.06902 237.729C8.3485 260.343 28.7099 278.123 52.0093 280.709C78.0226 283.651 102.693 266.614 115.109 244.711C124.232 228.674 126.467 210.537 123.708 193.042C142.999 193.653 162.36 195.885 181.196 199.839C207.647 205.361 235.596 214.916 253.519 236.375C266.33 251.759 273.837 275.594 265.02 294.642C261.73 301.731 263.34 310.031 270.365 314.149C276.694 317.771 286.548 315.694 289.872 308.804C301.387 283.992 298.501 256.108 285.106 232.454C270.547 206.751 245.325 190.407 218.136 180.519C189.853 170.204 158.543 166.117 128.497 164.674C123.964 164.421 119.232 164.202 114.335 164.215C108.048 151.196 98.7203 139.508 88.2723 129.642C75.9009 118.062 59.3321 108.212 51.7469 92.3511C40.7019 69.3192 55.2541 41.952 65.6554 21.4115C74.1157 5.07789 49.2641 -9.0839 40.8038 7.24967ZM58.85 252.402C51.7706 252.785 44.9472 249.858 40.4041 245.933C28.6984 235.872 23.928 220.963 35.8416 209.352C43.8939 201.456 55.8635 198.613 66.5114 196.401C75.8039 194.623 85.4629 193.804 95.1554 193.183C99.1721 210.873 95.1173 229.114 81.3874 242.054C75.2154 247.794 67.1535 252.017 58.85 252.402Z" fill="#63C0B7"/>
</svg>
